<?xml version="1.0" encoding="utf-8"?>
<!-- Generator: Adobe Illustrator 27.5.0, SVG Export Plug-In . SVG Version: 6.00 Build 0)  -->
<svg version="1.1" id="Capa_1" xmlns="http://www.w3.org/2000/svg" xmlns:xlink="http://www.w3.org/1999/xlink" x="0px" y="0px"
	 viewBox="0 0 2240 2009" style="enable-background:new 0 0 2240 2009;" xml:space="preserve">
<rect x="-0.004" style="fill:#FFD991;" width="2239.961" height="2008.969"/>
<ellipse transform="matrix(0.7071 -0.7071 0.7071 0.7071 -264.2206 1058.7266)" style="fill:#FFFEF4;" cx="1145.886" cy="848.306" rx="631.296" ry="631.295"/>
<path style="fill:#F0D9AD;" d="M1142.824,1727.5h-97.488c-7.559-11.152-20.551-36.824-1.84-61.398h60.328
	c34.762,0,62.945-19.473,62.945-43.496s-28.184-43.496-62.945-43.496H370.785c-34.762,0-62.941,19.473-62.941,43.496
	s28.18,43.496,62.941,43.496h223.504c10.059,11.371,24.41,35.719-5.172,61.398h-49.996c-28.629,0-51.828,16.047-51.828,35.824
	c0,19.789,23.199,35.82,51.828,35.82h603.703c28.617,0,51.828-16.031,51.828-35.82
	C1194.652,1743.547,1171.441,1727.5,1142.824,1727.5z"/>
<path style="fill:#F0D9AD;" d="M2030.316,1609.234h-641.852c-30.43,0-55.102,17.316-55.102,38.68s24.672,38.695,55.102,38.695
	h86.594c10.953,7.574,34.23,28.645-5.262,50.719h-81.082c-27.781,0-50.297,13.836-50.297,30.91c0,17.07,22.516,30.906,50.297,30.906
	h585.797c27.762,0,50.289-13.836,50.289-30.906c0-15.734-19.129-28.688-43.859-30.633c-8.063-7.594-27.52-30.117-1.234-50.996
	h50.609c30.418,0,55.098-17.332,55.098-38.695S2060.734,1609.234,2030.316,1609.234z"/>
<g>
	<g>
		<g>
			<path style="fill:#372553;" d="M1520.598,1008.703c1.664,0,3.305-0.785,4.328-2.254c11.969-17.141,9.063-40.086-6.48-51.156
				c-7.691-5.473-17.242-7.293-26.914-5.129c-9.457,2.117-17.895,7.828-23.766,16.078l4.098,3.336l4.352,2.98
				c4.504-6.328,10.711-10.555,17.617-12.102c6.715-1.508,13.273-0.285,18.496,3.43c10.848,7.727,12.617,24.105,3.949,36.523
				c-1.668,2.387-1.086,5.676,1.305,7.344C1518.5,1008.394,1519.551,1008.703,1520.598,1008.703z"/>
		</g>
		<polygon style="fill:#FBB359;" points="1507.863,992.551 1454.758,954.078 1347.949,1064.637 1466.914,1149.648 		"/>
		<polygon style="fill:#FED3AD;" points="1472.641,1127.672 1466.914,1149.648 1347.949,1064.637 1362.852,1049.211 		"/>
		<g>
			<path style="fill:#372553;" d="M1555.672,1016.953c2.41,0,4.59-1.664,5.141-4.121c5.195-23.191-7.734-46.063-28.816-50.984
				c-10.422-2.434-21.223-0.231-30.434,6.203c-9.031,6.309-15.449,15.965-18.066,27.188c-0.02,0.066-0.117,0.527-0.129,0.594
				c-0.555,2.863,1.324,5.629,4.18,6.176c2.871,0.559,5.625-1.32,6.176-4.18c2.07-8.879,6.984-16.316,13.879-21.129
				c6.719-4.695,14.543-6.316,21.996-4.578c15.473,3.609,24.855,20.84,20.918,38.406c-0.629,2.844,1.156,5.66,4,6.297
				C1554.902,1016.91,1555.289,1016.953,1555.672,1016.953z"/>
		</g>
		<polygon style="fill:#8772B4;" points="1463.258,981.988 1408.828,1159.215 1567.629,1189.391 1583.582,1009.324 		"/>
		<polygon style="fill:#B5ABD4;" points="1417.504,1130.805 1408.828,1159.215 1567.629,1189.391 1570.047,1162.176 		"/>
		<g>
			<path style="fill:#1C224E;" d="M1956.934,1622.457c0,0,2.324-270.004-2.004-332.246c-6.012-86.383-73.109-65.598-89.133-49.574
				c-15.254,15.258-9.785,54.016-4.773,95.082l49.055,287.664L1956.934,1622.457z"/>
		</g>
		<path style="fill:#1C224E;" d="M1916.871,1005.285c21.082,78.844,39.816,232.598,38.309,325.734
			c-0.465,29.125-84.129,36.809-90.133,9.77c-11.777-52.988-36.879-269.555-53.91-335.004L1916.871,1005.285z"/>
		<g>
			<path style="fill:#1C224E;" d="M1690.285,1624.711c0.129-10.258-9-235.012-4.754-295.938
				c6.004-86.383,55.078-79.121,71.102-63.102c15.258,15.258,18.406,33.055,13.402,74.113l-37.184,283.672L1690.285,1624.711z"/>
		</g>
		<path style="fill:#1C224E;" d="M1875.754,1005.785c-16.746,65.426-93.824,271.004-105.605,323.984
			c-6.004,27.039-85.375,19.281-83.121-17.523c2.762-45.043,59.754-227.207,80.121-306.461H1875.754z"/>
		<g>
			<path style="fill:#C88E83;" d="M1670.844,976.594c8.266,8.602,21.426,8.199,28.043-1.727l76.219-115.75
				c9.313-15.094,7.977-24.008,6.203-27.484c-5.43-10.629-23.664-1.859-33.797,4.434c-12.57,7.809-21.492,24.285-27.438,32.82
				c-6.266,8.992-13.309,22.266-51.926,80.246C1663.105,956.703,1658.699,963.945,1670.844,976.594z"/>
		</g>
		<g>
			<path style="fill:#C88E83;" d="M1548.863,979.391l132.969,5.102c10.844-0.043,19.605-8.871,19.559-19.715
				c-0.043-10.84-8.867-19.605-19.715-19.559l-133.875,6.746C1536.957,952.008,1537.566,978.117,1548.863,979.391z"/>
		</g>
		<path style="fill:#9E3E97;" d="M1672.508,933.43c16.828-25.313,74.926-104.938,88.504-118.43
			c12.859-12.773,39.355-26.059,45.07-15.586c3.379,6.195-3.633,14.563-12.953,29.656c0,0-77.809,134.906-94.086,153.18
			c-20.277,10.766-92.883,8.762-97.898,4.758c-8.344-6.684-10.156-34.766-2.75-42.563
			C1603.156,939.438,1672.508,933.43,1672.508,933.43z"/>
		<path style="fill:#C88E83;" d="M1767.328,718.719c0,18.192,10.988,34.313,18.32,40.609c9.094,7.813,20.625,12.426,40.602,7.813
			c42.797-9.875,63.18-32.875,63.18-78.426c0-45.551-16.922-75.039-59.586-75.039c-17.172,0-57.863,2.5-56.113,39.582
			C1775.074,681.695,1767.328,698.125,1767.328,718.719z"/>
		<path style="fill:#C88E83;" d="M1810.598,798.188c-3.672,9.781,37.418,10.352,34.996,0c-3.145-13.473,0-37.32,0-37.32h-34.996
			C1810.598,760.867,1814.824,786.91,1810.598,798.188z"/>
		<g>
			<g>
				<path style="fill:#C88E83;" d="M1974.367,966.488c11.367-3.629,16.801-15.621,10.801-25.934l-70.34-119.41
					c-9.449-15.016-18.043-17.738-21.949-17.676c-11.93,0.188-7.586,16.648-6.398,28.516c1.469,14.73,4.836,25.172,8.34,32.895
					c4.539,9.973,12.094,17.742,53.707,91.934C1953.098,964.676,1957.66,971.824,1974.367,966.488z"/>
			</g>
		</g>
		<path style="fill:#9E3E97;" d="M1761.137,1018.301c8.496,12.355,175.066,16.93,163.75-11.512
			c-33.551-84.285,4.164-170.504-13.848-190.43c-21.609-23.895-65.793-21.602-65.793-21.602h-40.254c0,0-14.988-1.481-31.594,14.398
			c-9.531,9.121-25.066,35.977-22.91,76.59C1753.273,938.258,1745.074,994.945,1761.137,1018.301z"/>
		<g>
			<g>
				<path style="fill:#C88E83;" d="M1973.313,1085.605l14.855-132.754c0.965-10.801-7.008-20.34-17.813-21.309
					c-10.793-0.969-20.344,7.004-21.305,17.809l-2.867,132.656C1946.699,1089.18,1972.633,1091.383,1973.313,1085.605z"/>
			</g>
		</g>
		<path style="fill:#9E3E97;" d="M1878.816,798.727c1.75-1.004,23.781-0.25,41.816,25.035
			c19.535,27.41,68.305,116.109,68.344,116.176c2.176,3.492,3.289,7.684,2.895,12.09c0,0-5.895,77.289-8.895,83.801
			c-3.012,6.508-40.262,3.012-41.816-0.246c-2.504-5.258,0-79.871,0-79.871s-41.801-80.859-46.34-90.832
			c-3.504-7.723-13.027-22.629-14.5-37.359C1879.133,815.648,1872.074,802.582,1878.816,798.727z"/>
		<path style="fill:#C88E83;" d="M1513.793,946.914c-0.906,3.773,4.805,6.059,10.18,7.406c-16.277,0.969-22.367,8.359-22.406,15.074
			c-0.059,9.231,6.906,16.246,15.836,14.902c6.313-0.922,31.461-4.906,31.461-4.906c9.645-2.313,11.785-5.844,10.844-14.836
			c-0.656-6.379-2.543-9.629-11.906-12.59c-0.383-0.211-26.422-8.582-26.422-8.582
			C1517.598,942.231,1514.871,942.383,1513.793,946.914z"/>
		<path style="fill:#C88E83;" d="M1937.227,1115.203c3.641,1.336,6.574-4.07,8.539-9.254c-0.93,16.277,5.695,23.184,12.367,24.004
			c9.16,1.129,16.938-4.973,16.645-14c-0.191-6.367-1.227-31.816-1.227-31.816c-1.18-9.851-4.438-12.387-13.473-12.496
			c-6.414-0.082-9.863,1.41-13.895,10.367c-0.25,0.352-11.582,25.254-11.582,25.254
			C1933.016,1110.883,1932.852,1113.598,1937.227,1115.203z"/>
		<path style="fill:#9E3E97;" d="M1979.969,1622.09c-14.621-8.785-19.785-26.543-22.906-25.164
			c-20.758,9.129-51.207,2.75-51.207,2.75c-0.141,2.273-4.758,33.301,6.137,35.93c25.711,6.203,31.52,14.156,47.945,24.91
			c21.031,13.77,43.129,12.832,54.211,9.641C2028.578,1665.996,2013.395,1642.176,1979.969,1622.09z"/>
		<path style="fill:#9E3E97;" d="M1734.008,1614.852c0,0-20.73,10.27-42.973-6.414c-6.012-4.504-18.379,3.297-21.535,4.758
			c-14.016,6.512-45.031,11.23-56.098,12.07c-14.188,1.074-8.262,45.34,49.34,31.496c52.973-12.734,58.75,3.789,69.602-1.758
			C1736.758,1652.758,1744.574,1631.789,1734.008,1614.852z"/>
		<path style="fill:#FBB359;" d="M1771.156,658.769c1.996,5.031,6.508,10.016,20.027-1.004c13.52-11.016,25.539-0.504,32.547,5.012
			c7.008,5.504,3.012,7.504,1.508,15.52c-1.508,8.012-1.008,13.02,4.504,17.027c5.504,4.004,12.023,5.504,6.012,14.519
			c-6.012,9.012-11.016,19.027-5.512,25.535c5.512,6.512,6.074,6.269,10.016,22.035c0.5,2.004-18.527,38.555-2.508,61.09
			c16.027,22.535,24.535,23.035,28.543,43.566c4.008,20.531-7.801,36.457,11.02,45.566c31.047,15.027,81.625,1.004,84.125-32.043
			c2.504-33.051-24.535-38.058-19.027-55.082c5.512-17.027-14.523-26.543-26.543-39.059c-12.016-12.523-13.016-27.543-5.504-43.566
			c7.516-16.027,6.012-47.57-4.508-62.094c-10.516-14.524-1.277-33.195-26.539-55.336c-24.289-21.281-51.578-14.019-70.609-12.269
			c-28.703,2.644-39.305,21.285-36.305,29.797C1775.41,646.496,1768.969,653.254,1771.156,658.769z"/>
		<path style="fill:#FBB359;" d="M1890.234,610.789c-15.195,8.512-19.637,29.5-9.902,46.871
			c9.734,17.371,29.949,24.551,45.145,16.035c15.203-8.516,19.637-29.5,9.902-46.871
			C1925.645,609.449,1905.441,602.273,1890.234,610.789z"/>
		<path style="fill:#C88E83;" d="M1828.598,705.644c-0.391,7.688-4.93,14.313,0.957,14.609c5.875,0.297,10.965-5.691,11.355-13.375
			c0.387-7.684-4.063-14.156-9.949-14.449C1825.086,692.129,1828.984,697.961,1828.598,705.644z"/>
		<path style="fill:#9E3E97;" d="M1825.223,719.691c0,2.371,1.922,4.293,4.293,4.293c2.375,0,4.293-1.922,4.293-4.293
			c0-2.367-1.918-4.293-4.293-4.293C1827.145,715.398,1825.223,717.324,1825.223,719.691z"/>
	</g>
	<g>
		<g>
			<g>
				<g>
					<path style="fill:#E5A393;" d="M1187.684,978.848c-9.547,6.691-23.031,6.188-33.184-12.27l-45.082-122.012
						c-6.09-16.231-3.125-24.523-0.766-27.527c7.203-9.164,17.652,7.668,24.504,17.105c17.789,24.504,41.926,48.086,63.504,112.66
						C1200.684,958.82,1201.719,969.008,1187.684,978.848z"/>
				</g>
			</g>
			<g>
				<g>
					<path style="fill:#E5A393;" d="M1336.887,973.695l-163.473,9.164c-10.598,0.078-18.211-11.762-18.285-22.359
						c-0.078-10.594,6.68-21.992,20.012-24l162.078,14.008C1347.82,950.43,1347.91,972.328,1336.887,973.695z"/>
				</g>
			</g>
			<g>
				<path style="fill:#007BC1;" d="M1138.883,818.371c-13.766-16.523-29.535-20.699-46.57-19.277c-3,0.25,4.145,23.942,10.52,40.063
					c0,0,20.691,76.52,33.844,85.477c5.238,3.563,47.078-10.668,47.281-23.633C1184.102,891.613,1148.148,829.484,1138.883,818.371z
					"/>
			</g>
			<path style="fill:#E5A393;" d="M1375.141,942.313c1,3.652-4.5,6.063-9.715,7.547c15.926,0.445,22.105,7.473,22.352,14.031
				c0.34,9.016-6.242,16.082-15.012,15.047c-6.184-0.711-30.875-3.824-30.875-3.824c-9.492-1.961-11.699-5.344-11.055-14.148
				c0.449-6.262,2.188-9.488,11.242-12.672c0.367-0.219,25.547-9.195,25.547-9.195
				C1371.289,937.856,1373.949,937.918,1375.141,942.313z"/>
		</g>
		<g>
			<g>
				<path style="fill:#1C224E;" d="M877.332,1618.551c0,0,127.188-215.324,146.723-262.395c15.16-36.539-8.176-48.238-29.047-56.586
					c-22.992-9.184-59.668-14.891-69.977,16.398c-14.02,42.57-91.488,277-91.488,277L877.332,1618.551z"/>
			</g>
		</g>
		<path style="fill:#1C224E;" d="M987.941,1062.719c-12.762,63.992-46.305,198.629-60.91,247.746
			c-18.594,62.555,24.91,102.684,74.813,77.266c40.684-20.73,94.016-270.738,105.152-325.012H987.941z"/>
		<g>
			<path style="fill:#1C224E;" d="M1198.82,1624.563c0,0-3.184-252.227-7.516-314.469c-6.012-86.383-63.594-79.125-79.625-63.098
				c-15.25,15.258-21.527,39.055-16.523,80.117l56.809,298.371L1198.82,1624.563z"/>
		</g>
		<path style="fill:#1C224E;" d="M1027.988,1062.719c16.172,62.012,55.551,213.883,67.539,267.844
			c6.012,27.039,77.445,55.836,87.762,28.602c23.891-63.094-17.473-218.895-38.059-296.445H1027.988z"/>
		<path style="fill:#E5A393;" d="M1135.723,723.711c0,17.777-10.742,33.527-17.902,39.688c-8.891,7.637-19.723,9.426-39.684,7.637
			c-41.816-3.758-61.742-32.133-61.742-76.648c0-44.508,16.539-73.332,58.234-73.332c16.773,0,56.547,2.445,54.832,38.688
			C1128.148,687.531,1135.723,703.586,1135.723,723.711z"/>
		<path style="fill:#E5A393;" d="M1097.891,801.856c4.395,8.93-44.863,9.453-41.965,0c3.781-12.297-4.582-38.836-4.582-38.836
			l46.547,4.774C1097.891,767.793,1092.824,791.563,1097.891,801.856z"/>
		<path style="fill:#007BC1;" d="M1163.266,1100.277c-6.316,13.215-203.355,20.281-192.293-7.512
			c32.793-82.367,6.703-254.168,24.309-273.637c21.113-23.348,64.285-21.113,64.285-21.113h39.348c0,0,14.648-1.445,30.875,14.078
			c9.313,8.91,20.023,35.168,22.387,74.84C1157.254,972.086,1173.777,1078.242,1163.266,1100.277z"/>
		<path style="fill:#007BC1;" d="M836.773,1586c0,0,7.285,20.352,35.051,19.031c15.777-0.754,18.027,5.254,18.777,15.773
			c0.367,5.07,8.215,11.309,17.207,17.188c9.644,6.316,22.859,5.465,27.297,9.102c8.734,7.145,0.195,26.855-36.969,24.918
			c-8.191-0.422-16.848-6.727-26.875-13.844c-26.477-18.773-52.516-26.098-58.023-36.613
			C810.43,1616.191,807.734,1590.758,836.773,1586z"/>
		<path style="fill:#007BC1;" d="M1150.449,1616.82c0,0,17.633,12.516,39.633-4.48c12.5-9.648,17.793-6.016,24.43,2.176
			c6.637,8.188,45.48,11.879,56.543,12.719c14.188,1.074,9.121,44.406-49.445,35.461c-36.586-5.582-59.063,1.156-70.082-3.25
			C1146.926,1657.609,1139.887,1633.762,1150.449,1616.82z"/>
		<path style="fill:#090D37;" d="M1129.84,674.953c0,0-15.934,12.836-41.316-5.824c-15.582-11.453-18.023,5.258-22.527,15.398
			c-4.512,10.141-13.523,6.012-15.773,15.773c-2.258,9.766,8.637,10.141,9.762,23.66c1.129,13.523,3.531,39.07-6.668,44.785
			c-8.547,4.789-33.332-4.035-32.016-18.121c2.484-26.672-4.508-30.043-13.144-51.824c-8.641-21.785,6.758-47.32,16.898-60.844
			c10.145-13.519,15.773-9.012,33.426-19.148c17.656-10.144,44.691-2.633,48.828,3.754
			C1111.434,628.945,1137.91,626.313,1129.84,674.953z"/>
		<path style="fill:#E5A393;" d="M1057.316,704.414c0.383,7.512,4.813,13.984-0.938,14.273c-5.746,0.289-10.715-5.559-11.098-13.066
			c-0.379-7.512,3.969-13.836,9.719-14.125C1060.746,691.203,1056.938,696.906,1057.316,704.414z"/>
		<g>
			<g>
				<path style="fill:#E5A393;" d="M1043.297,1040.977c-10.734,4.555-24.988-2.32-29.543-15.973
					c-10.664-31.953-18.906-129.672-18.906-129.672c-2.551-17.144,2.078-24.637,5.008-27.078c8.965-7.457,16.23,7.504,22.918,17.059
					c8.289,11.852,12.445,21.734,14.762,29.691c2.992,10.285,5.887,17.867,22.301,99.363
					C1061.449,1023.109,1059.074,1034.293,1043.297,1040.977z"/>
			</g>
		</g>
		<g>
			<path style="fill:#007BC1;" d="M1000.504,814.238c-28.922,10.141-24.801,104.633-11.25,127.32
				c4.973,8.32,57.059-2.828,58.465-5.348c7.801-13.965-14.031-72.793-18.797-87.176
				C1025.254,837.969,1011.504,810.383,1000.504,814.238z"/>
		</g>
		<g>
			<g>
				<path style="fill:#E5A393;" d="M1075.359,1145.551l-61.887-121.227c-5.84-15.859,4.836-25.996,13.465-27.566
					c10.418-1.898,23.895-7.297,31.531,13.277l37.559,124.973C1097.973,1141.758,1077.934,1150.617,1075.359,1145.551z"/>
			</g>
		</g>
		<g>
			<g>
				<path style="fill:#220D3D;" d="M1081.813,1208.148c-8.008-21.48,1.352-45.027,20.859-52.5
					c19.707-7.551,42.465,3.91,50.746,25.535l-9.695,4.164c-6.355-16.582-23.008-25.324-37.281-19.848
					c-14.129,5.406-20.742,22.887-14.75,38.969L1081.813,1208.148z"/>
			</g>
			<g>
				<polygon style="fill:#51BAEA;" points="1264.621,1284.527 1186.098,1161.297 1043.277,1216.563 1067.84,1359.891 				"/>
				<polygon style="fill:#009CCF;" points="1264.621,1284.527 1249.016,1260.047 1062.945,1331.305 1067.84,1359.891 				"/>
			</g>
		</g>
		<g>
			<g>
				<path style="fill:#220D3D;" d="M1057.449,1202.863c-0.406-22.922,16.25-42.023,37.137-42.578
					c10.313-0.367,20.113,3.902,27.574,11.766c7.309,7.715,11.496,18.078,11.793,29.184l-5.262,0.523h-5.273
					c-0.23-8.742-3.398-16.629-8.914-22.449c-5.371-5.668-12.324-8.637-19.633-8.484c-15.129,0.402-27.184,14.695-26.875,31.852
					L1057.449,1202.863z"/>
			</g>
			<polygon style="fill:#FBB359;" points="1018.289,1198.563 1012.219,1394.934 1189.547,1390.195 1171.484,1194.461 			"/>
			<polygon style="fill:#FED3AD;" points="1013.066,1367.473 1012.219,1394.934 1189.547,1390.195 1187.023,1362.82 			"/>
		</g>
		<path style="fill:#E5A393;" d="M1119.539,1164.91c-2.895,2.453-7.41-1.508-10.957-5.598c6.34,14.617,2.598,23.188-3.246,26.188
			c-8.02,4.125-17.211,1.156-19.984-7.215c-1.977-5.914-9.617-29.602-9.617-29.602c-2.242-9.434-0.109-12.855,8.141-16
			c5.855-2.25,9.52-2.043,16.238,4.809c0.352,0.242,19.152,19.254,19.152,19.254
			C1121.934,1159.527,1123.008,1161.969,1119.539,1164.91z"/>
		<g>
			<path style="fill:none;stroke:#372553;stroke-width:9.0135;stroke-miterlimit:10;" d="M1318.039,974.695
				c0.191,3.898,0.68,10.914,0.68,11.043"/>
			<g>
				<path style="fill:#372553;" d="M1257.445,985.019l-9.02-0.082c0.145-15.766,4.734-31.273,17.648-40.613l9.902,0.891
					C1261.281,955.168,1257.563,971.621,1257.445,985.019z"/>
			</g>
			<g>
				<polygon style="fill:#9E3E97;" points="1390.895,1167.766 1363.18,982.336 1210.465,982.859 1180.762,1167.766 				"/>
				<polygon style="fill:#B986AA;" points="1390.895,1167.766 1385.09,1139.395 1186.398,1139.395 1180.762,1167.766 				"/>
			</g>
		</g>
	</g>
	<g>
		<g>
			<g>
				<path style="fill:#372553;" d="M401.363,1148.691c-0.113,0-0.23,0-0.348-0.008c-2.906-0.188-5.109-2.699-4.922-5.602
					c1.746-26.758-8.477-43.586-27.34-45.016c-16.844-1.281-32.039,14.426-33.867,35.012c-0.258,2.898-2.82,5.027-5.719,4.785
					c-2.906-0.258-5.043-2.816-4.789-5.715c2.34-26.305,22.629-46.359,45.172-44.598c19.594,1.488,39.621,17.039,37.07,56.215
					C406.441,1146.555,404.117,1148.691,401.363,1148.691z"/>
			</g>
			<g>
				<path style="fill:#372553;" d="M383.23,1155.25c-0.273,0-0.555-0.016-0.84-0.063c-2.875-0.465-4.836-3.164-4.371-6.043
					c3.469-21.625,2.289-35.488-3.719-43.621c-3.891-5.273-10.066-8.445-18.875-9.688c-16.625-2.32-38.852,9.75-46.66,51.586
					c-0.535,2.855-3.273,4.738-6.152,4.207c-2.859-0.527-4.75-3.285-4.215-6.145c9.176-49.141,37.234-63.063,58.5-60.09
					c11.598,1.633,20.305,6.301,25.887,13.863c7.906,10.711,9.645,26.609,5.648,51.555
					C388.02,1153.406,385.777,1155.25,383.23,1155.25z"/>
			</g>
			<g>
				<polygon style="fill:#F6A3AC;" points="302.309,1144.285 250.602,1136.219 188.5,1319.16 296.859,1329.672 				"/>
				<polygon style="fill:#F9C0C5;" points="199.441,1286.914 188.5,1319.16 296.859,1329.672 297.758,1299.035 				"/>
			</g>
			<polygon style="fill:#9E3E97;" points="439.523,1136.383 291.367,1124.207 228.777,1346.281 442.055,1379.293 			"/>
			<polygon style="fill:#B986AA;" points="238.344,1312.367 228.777,1346.281 442.055,1379.293 441.629,1339.066 			"/>
		</g>
		<g>
			<g>
				<path style="fill:#F9A888;" d="M350.906,1598.082l146.129-181.426c54.578-60.379,32.797-85.93,12.684-97.078
					c-22.16-12.281-28.73-10.895-50.566,14.805l-140.145,241.234L350.906,1598.082z"/>
			</g>
		</g>
		<path style="fill:#F9A888;" d="M587.836,1071.984c0,0-35.699,275.723-69.414,315.891c-16.746,19.953-80.941,11.629-62.594-52.578
			c19.027-66.602,12.453-264.918,12.453-264.918L587.836,1071.984z"/>
		<g>
			<g>
				<path style="fill:#F9A888;" d="M687.824,1620.707l13.906-262.652c-0.285-45.063-27.609-54.598-49.805-51.422
					c-24.453,3.484-29.199,27.219-29.117,40.738l26.586,273.582L687.824,1620.707z"/>
			</g>
		</g>
		<path style="fill:#F9A888;" d="M699.922,1338.863c-13.398-47.848-49.172-195.512-76.844-243.426l-118.051,0.727
			c-3.664,10.973-19.18,92.477,30.199,130.148c49.703,37.918,64.047,128.57,110.117,152.609
			C660.348,1386.75,712.75,1384.652,699.922,1338.863z"/>
		<path style="fill:#543F79;" d="M616.801,1033.902l-152.602,1.504c-16.402,41.567-35.18,49.074-26.668,233.348
			c4.523,97.773-64.016,175.145-58.586,188.285c9.512,23.035,307.984,34.797,316.723,20.781c7.387-11.836,31.98-68.84,5.258-170.004
			C672.887,1201.656,628.566,1120.785,616.801,1033.902z"/>
		<path style="fill:#F2748A;" d="M647.305,1603.859c0,0,20.805,9.863,41.293-2.941c0,0,3.637,24.879,35.969,36.473
			c18.934,6.793,44.988,23.266,23.637,31.75c-13.363,5.316-67.625,1.961-67.625,1.961s5.27-8.617-6.664-21.102
			c-11.93-12.469-9.359,20.691-9.359,20.691l-16.645,0.34L647.305,1603.859z"/>
		<path style="fill:#F2748A;" d="M322.227,1569.969c0,0,12.945,20.879,36.988,18.492c0,0-4.695,35.254,10.891,43.211
			c24.152,12.336,40.945,40.375,17.98,39.512c-16.098-0.605-38.719-8.641-45.383-12.398c-14.203-8.004-27.219-14.852-27.219-14.852
			s10.188-7.641,5.035-24.117c-5.152-16.477-18.754,14.941-18.754,14.941l-13.875-7.648L322.227,1569.969z"/>
		<g>
			<g>
				<path style="fill:#F9A888;" d="M402.051,953.769c-10.676-5.328-14.211-18.012-6.711-27.281l87.793-107.242
					c11.629-13.391,20.531-14.769,24.383-14.113c11.762,2.016,8.828,22.031,5.84,33.582c-3.711,14.328-16.781,27.75-23.164,35.973
					c-6.711,8.66-17.281,19.332-61.129,73.477C423.34,955.231,417.746,961.598,402.051,953.769z"/>
			</g>
		</g>
		<g>
			<g>
				<path style="fill:#F9A888;" d="M362.465,1065.59l28.277-130.031c2.75-10.492,13.488-16.769,23.977-14.012
					c10.48,2.746,16.766,13.484,14.012,23.977l-39.969,127.941C386.008,1083.953,360.879,1076.844,362.465,1065.59z"/>
			</g>
		</g>
		<path style="fill:#F9A888;" d="M619.031,722.059c0,18.188-10.984,34.309-18.32,40.606c-9.094,7.813-20.625,12.426-40.609,7.813
			c-42.797-9.875-63.18-32.875-63.18-78.422c0-45.555,16.93-75.043,59.594-75.043c17.164,0,57.863,2.504,56.109,39.586
			C611.277,685.035,619.031,701.465,619.031,722.059z"/>
		<path style="fill:#F9A888;" d="M575.762,801.527c3.664,9.781-37.418,10.348-34.996,0c3.148-13.477,0-37.324,0-37.324h34.996
			C575.762,764.203,571.531,790.246,575.762,801.527z"/>
		<path style="fill:#F2748A;" d="M456.809,1040.539c-6.762,25.918,160.566,23.074,164.996,8.387
			c4.008-13.266-16.992-63.34-11.762-152.227c4.129-70.231-35.285-98.707-35.285-98.707l-33.652,0.102c0,0-37.352-3.547-56.5,27.625
			C470.652,848.418,481.512,945.832,456.809,1040.539z"/>
		<g>
			<g>
				<path style="fill:#F9A888;" d="M728.941,815.852c5.473,12.656-0.84,26.5-14.371,29.109l-137.312,24.641
					c-20.254,3.18-29.152-2.234-32.063-5.688c-8.895-10.531-5.488-32.371,12.281-37.379c20.125-5.672,47.184-5.715,143.41-25.836
					C711.207,798.707,720.898,797.25,728.941,815.852z"/>
			</g>
		</g>
		<g>
			<g>
				<g>
					<path style="fill:#F9A888;" d="M831.875,724.441L727.551,838.227c-8.676,9.047-23.043,9.355-32.09,0.68
						c-9.043-8.66-9.352-23.035-0.676-32.086l113.348-103.27C814.773,698.547,836.387,719.457,831.875,724.441z"/>
				</g>
			</g>
		</g>
		<path style="fill:#F9A888;" d="M830.23,670.523c3.93,2.16,1.449,8.82-1.57,14.469c13.473-13.172,24.523-12.644,30.305-7.465
			c7.938,7.125,8.535,18.531,0.453,25.129c-5.695,4.672-28.641,23.106-28.641,23.106c-9.473,6.457-14.16,5.547-21.117-2.238
			c-4.945-5.519-6.266-9.656-1.527-19.973c0.117-0.488,13.191-29.277,13.191-29.277C823.269,670.144,825.516,667.934,830.23,670.523
			z"/>
		<path style="fill:#090D37;" d="M611.543,662.539c5.707-0.125,14.355-10.453,9.848-21.473c-4.508-11.012-6.352-9.793-9.953-19.34
			c-3.758-9.949-16.148-8.012-23.664-7.512c-7.508,0.504-17.098,2.996-24.281-2c-14.395-10.016-41.188-2.629-55.711,9.891
			c-14.52,12.516-5.887,23.66-20.906,29.668c-15.02,6.008-18.531,34.676-12.52,46.195c6.012,11.516-1.004,28.418-5.004,38.93
			c-4.008,10.52-19.535,34.555-11.52,58.59c8.016,24.035-22.051,65.156-36.32,92.199c-20.34,38.531-7.016,139.703,17.664,160.805
			c15.367,13.133,80.981,5.941,91.141-42.566c4.094-19.566,86.355-46.125,65.453-94.203
			c-22.531-51.828-22.285-107.914-9.766-125.438c12.519-17.523,14.652-56.707,14.652-78.742c0-22.035-10.852-31.426-3.012-40.688
			C605.84,657.18,607.555,662.621,611.543,662.539z"/>
		<path style="fill:#F9A888;" d="M385.156,1107.656c-3.887-0.066-4.672-6.164-4.633-11.707c-5,15.524-13.676,19.57-20.191,17.93
			c-8.953-2.254-14.012-10.746-10.48-19.055c2.477-5.875,12.613-29.234,12.613-29.234c4.656-8.77,8.609-9.961,17.074-6.801
			c6.012,2.23,8.691,4.871,9.223,14.676c0.105,0.418,1.703,27.727,1.703,27.727C390.637,1105.148,389.813,1107.738,385.156,1107.656
			z"/>
	</g>
</g>
</svg>
